<?xml version="1.0" encoding="utf-8"?>
<!-- Generator: Adobe Illustrator 16.0.0, SVG Export Plug-In . SVG Version: 6.00 Build 0)  -->
<!DOCTYPE svg PUBLIC "-//W3C//DTD SVG 1.1//EN" "http://www.w3.org/Graphics/SVG/1.1/DTD/svg11.dtd">
<svg version="1.1" id="Layer_1" xmlns="http://www.w3.org/2000/svg" xmlns:xlink="http://www.w3.org/1999/xlink" x="0px" y="0px"
	 width="399.95px" height="120.89px" viewBox="0 0 399.95 120.89" enable-background="new 0 0 399.95 120.89" xml:space="preserve">
<g>
	<linearGradient id="SVGID_1_" gradientUnits="userSpaceOnUse" x1="50.8091" y1="126.501" x2="51.3306" y2="96.6215">
		<stop  offset="0" style="stop-color:#BBBDBF"/>
		<stop  offset="0.76" style="stop-color:#535456"/>
		<stop  offset="1" style="stop-color:#504F50"/>
	</linearGradient>
	<path fill-rule="evenodd" clip-rule="evenodd" fill="url(#SVGID_1_)" d="M29.486,120.89c0-1.071,0-2.143,0-3.214l18.101-15.765
		l3.349,5.462l3.349-5.461l18.101,15.764c0,1.071,0,2.143,0,3.214c-6.662-2.005-13.336-4.043-19.374-4.419
		c-0.692,1.339-1.384,2.679-2.075,4.018c-0.692-1.339-1.384-2.679-2.076-4.018C42.822,116.847,36.147,118.885,29.486,120.89z"/>
	<linearGradient id="SVGID_2_" gradientUnits="userSpaceOnUse" x1="51.4395" y1="-1.2222" x2="50.3169" y2="63.0859">
		<stop  offset="0" style="stop-color:#BBBDBF"/>
		<stop  offset="0.76" style="stop-color:#545454"/>
		<stop  offset="1" style="stop-color:#4F5050"/>
	</linearGradient>
	<path fill-rule="evenodd" clip-rule="evenodd" fill="url(#SVGID_2_)" d="M42.96,15.655C43.273,7.621,46.531,3.122,50.936,0
		c4.404,3.122,7.662,7.621,7.975,15.655v23.942l-7.975,22.268L42.96,39.597C42.96,31.617,42.96,23.636,42.96,15.655z"/>
	<polygon fill-rule="evenodd" clip-rule="evenodd" fill="#097098" points="359.161,106.793 133.054,106.793 132.304,105.424 
		359.911,105.424 	"/>
	<path fill="#595959" d="M146.643,14.436h10.212v41.891l-17.09-16.673v14.433h-10.212V12.56l17.09,17.976V14.436L146.643,14.436z
		 M160.034,46.375c-0.382-1.458-0.573-3.248-0.573-5.367V38.82c0-0.348,0.017-0.556,0.052-0.625
		c0.382-4.099,1.441-7.225,3.178-9.378c2.119-2.605,5.088-3.908,8.91-3.908c3.994,0,7.017,1.337,9.066,4.012
		c1.841,2.432,2.761,5.697,2.761,9.795v4.897h-14.693v0.313c0.035,0.069,0.052,0.174,0.052,0.313
		c0.243,1.181,0.938,1.771,2.084,1.771h11.046v8.076h-13.13C164.341,54.086,161.423,51.516,160.034,46.375L160.034,46.375z
		 M168.526,36.997h6.565c0-0.174-0.026-0.417-0.078-0.729c-0.052-0.313-0.113-0.712-0.183-1.198
		c-0.069-0.313-0.364-0.851-0.885-1.615c-0.625-0.521-1.355-0.782-2.188-0.782C169.603,32.672,168.526,34.113,168.526,36.997
		L168.526,36.997z M200.727,25.377l-4.012,16.934l-3.491-16.934h-10.316l8.597,28.709h9.587l2.97-11.567l2.813,11.567h9.588
		l8.701-28.709h-10.369l-3.49,16.934l-3.961-16.934H200.727L200.727,25.377z M253.142,14.436h10.421l-15.214,41.891l-15.162-41.891
		h10.421l4.689,15.267L253.142,14.436L253.142,14.436z M273.463,54.086h-9.066V25.377h9.066V54.086L273.463,54.086z M264.396,14.436
		h9.066v8.285h-9.066V14.436L264.396,14.436z M276.224,34.287c0-2.57,0.816-4.707,2.449-6.409c1.667-1.667,3.838-2.501,6.513-2.501
		h12.297v7.347h-11.046c-0.869,0-1.303,0.451-1.303,1.354c0,0.625,0.347,1.025,1.042,1.198h4.637c2.396,0,4.412,0.834,6.044,2.501
		c1.633,1.702,2.449,3.734,2.449,6.096v1.98c0,2.188-1.024,4.203-3.074,6.044c-1.633,1.459-3.786,2.188-6.461,2.188h-12.869V46.01
		h11.41c1.32,0,1.98-0.417,1.98-1.25V44.5c0-0.799-0.538-1.198-1.615-1.198h-3.855c-1.32,0-2.501-0.226-3.543-0.678
		c-1.043-0.452-1.945-1.077-2.71-1.875c-0.764-0.799-1.346-1.746-1.745-2.84S276.224,35.607,276.224,34.287L276.224,34.287z
		 M311.237,54.086h-9.066V25.377h9.066V54.086L311.237,54.086z M302.171,14.436h9.066v8.285h-9.066V14.436L302.171,14.436z
		 M326.243,54.451c-3.96-0.069-6.999-1.354-9.118-3.855c-1.98-2.432-2.97-5.645-2.97-9.639v-2.292c0-0.348,0.017-0.556,0.052-0.625
		c0.729-8.753,4.741-13.13,12.036-13.13c3.96,0,7.017,1.337,9.17,4.012c1.945,2.466,2.918,5.714,2.918,9.744v2.292
		c0,3.439-0.99,6.634-2.97,9.587c-1.737,2.57-4.776,3.855-9.118,3.855V54.451L326.243,54.451z M329.369,37.934
		c0-0.208-0.018-0.347-0.052-0.417c-0.209-1.667-0.417-2.727-0.626-3.179c-0.486-1.111-1.303-1.667-2.448-1.667
		c-2.084,0-3.127,1.754-3.127,5.262v3.439c0,0.139,0.018,0.261,0.053,0.365c0.313,3.057,1.337,4.585,3.074,4.585
		c2.084,0,3.126-1.702,3.126-5.106V37.934L329.369,37.934z M364.747,54.086h-9.066V36.111c0-2.292-0.902-3.439-2.709-3.439h-2.604
		v21.415h-9.066V25.377h13.808c1.806,0,3.577,0.452,5.314,1.354c1.875,1.042,3.057,2.379,3.543,4.012
		c0.521,1.841,0.781,4.116,0.781,6.826V54.086z"/>
	<linearGradient id="SVGID_3_" gradientUnits="userSpaceOnUse" x1="239.2803" y1="7.2632" x2="238.7202" y2="39.3467">
		<stop  offset="0" style="stop-color:#8E8D8D"/>
		<stop  offset="0.7" style="stop-color:#5E5F5F"/>
		<stop  offset="1" style="stop-color:#5B5C60"/>
	</linearGradient>
	<path fill-rule="evenodd" clip-rule="evenodd" fill="url(#SVGID_3_)" d="M146.641,14.435h10.212v11.999l-10.212-0.815V14.435
		L146.641,14.435z M129.55,24.254V12.559l12.032,12.656l-0.478-0.038L129.55,24.254L129.55,24.254z M164.518,27.045
		c1.896-1.425,4.255-2.138,7.081-2.138c3.67,0,6.519,1.128,8.547,3.385L164.518,27.045L164.518,27.045z M200.726,25.376h6.617
		l1.213,5.185l-8.89-0.71L200.726,25.376L200.726,25.376z M213.642,30.967l1.152-5.59h10.368l-1.926,6.357L213.642,30.967
		L213.642,30.967z M183.868,28.59l-0.963-3.214h10.317l0.83,4.027L183.868,28.59L183.868,28.59z M253.143,14.435h10.421
		l-6.632,18.261l-10.824,0.864l-6.178-0.493l-6.743-18.632h10.421l4.689,15.267L253.143,14.435L253.143,14.435z M264.396,32.099
		v-6.723h9.066v5.999L264.396,32.099L264.396,32.099z M264.396,14.435h9.066v8.285h-9.066V14.435L264.396,14.435z M276.709,31.116
		c0.403-1.213,1.058-2.293,1.965-3.239c1.667-1.667,3.838-2.501,6.513-2.501h12.297v4.081L276.709,31.116L276.709,31.116z
		 M302.173,29.083v-3.707h9.066v2.983L302.173,29.083L302.173,29.083z M302.173,14.435h9.066v8.285h-9.066V14.435L302.173,14.435z
		 M318.135,27.809c1.979-1.934,4.682-2.901,8.11-2.901c2.596,0,4.805,0.575,6.624,1.725L318.135,27.809L318.135,27.809z
		 M341.304,25.959v-0.583h7.299L341.304,25.959z"/>
	<path fill-rule="evenodd" clip-rule="evenodd" fill="#0094CB" d="M109.348,63.745c136.912,0,136.608,0,273.521,0l-22.954,41.678
		c-121.609,0-106.003,0-227.613,0L109.348,63.745z"/>
	<linearGradient id="SVGID_4_" gradientUnits="userSpaceOnUse" x1="246.1758" y1="59.8086" x2="245.8021" y2="81.2143">
		<stop  offset="0" style="stop-color:#67B8E6"/>
		<stop  offset="0.72" style="stop-color:#209CCF"/>
		<stop  offset="1" style="stop-color:#1B9ACC"/>
	</linearGradient>
	<polygon fill-rule="evenodd" clip-rule="evenodd" fill="url(#SVGID_4_)" points="109.348,63.745 382.868,63.745 379.985,68.98 
		246.107,79.668 112.23,68.98 	"/>
	<path fill="#FFFFFF" d="M163.011,73.757l3.891,21.458h-5.357l-0.254-2.114h-3.891l-0.253,2.114h-5.301l3.863-21.458H163.011
		L163.011,73.757z M159.317,79.65l-1.212,8.12h2.453L159.317,79.65L159.317,79.65z M187.261,73.757h5.639l-8.233,22.671
		l-8.206-22.671h5.64l2.538,8.262L187.261,73.757L187.261,73.757z M206.012,73.757h5.526v21.458h-5.526V73.757L206.012,73.757z
		 M235.647,73.757l3.891,21.458h-5.357l-0.254-2.114h-3.891l-0.254,2.114h-5.302l3.863-21.458H235.647L235.647,73.757z
		 M231.953,79.65l-1.213,8.12h2.454L231.953,79.65L231.953,79.65z M264.211,73.757v5.188h-4.229v16.27h-5.498v-16.27h-4.229v-5.188
		H264.211L264.211,73.757z M277.915,73.757h5.526v21.458h-5.526V73.757L277.915,73.757z M297.483,89.35v-9.672
		c0-2.011,0.668-3.571,2.003-4.681c1.222-1.033,2.876-1.551,4.963-1.551c2.049,0,3.702,0.518,4.962,1.551
		c1.354,1.109,2.03,2.67,2.03,4.681v9.672c0,2.03-0.667,3.601-2.002,4.709c-1.26,0.997-2.923,1.494-4.99,1.494
		c-2.087,0-3.741-0.497-4.963-1.494C298.151,92.95,297.483,91.38,297.483,89.35L297.483,89.35z M304.449,90.309
		c0.977,0,1.466-0.498,1.466-1.494v-8.656c0-0.979-0.489-1.467-1.466-1.467c-0.959,0-1.438,0.488-1.438,1.467v8.656
		C303.011,89.811,303.49,90.309,304.449,90.309L304.449,90.309z M334.846,73.757h5.526v22.671l-9.249-9.023v7.811h-5.526V72.742
		l9.249,9.728V73.757z"/>
	<path fill-rule="evenodd" clip-rule="evenodd" fill="#097098" d="M160.552,87.771h-2.428l-0.138,0.839h2.708L160.552,87.771
		L160.552,87.771z M334.846,74.596h5.526v-0.839h-5.526V74.596L334.846,74.596z M325.597,73.58v-0.838l9.249,9.728v0.839
		L325.597,73.58L325.597,73.58z M304.449,90.309c-0.959,0-1.438-0.498-1.438-1.494v0.838c0,0.996,0.479,1.494,1.438,1.494
		c0.978,0,1.466-0.498,1.466-1.494v-0.838C305.915,89.811,305.426,90.309,304.449,90.309L304.449,90.309z M304.449,73.446
		c-2.087,0-3.741,0.518-4.963,1.551c-1.335,1.109-2.003,2.67-2.003,4.681l0.001,0.838c0-2.011,0.666-3.57,2.001-4.681
		c1.223-1.033,2.877-1.55,4.964-1.55c2.048,0,3.703,0.517,4.962,1.55c1.338,1.097,2.015,2.633,2.03,4.61v-0.768
		c0-2.011-0.677-3.571-2.03-4.681C308.151,73.964,306.498,73.446,304.449,73.446L304.449,73.446z M277.915,73.757v0.839h5.527
		l-0.001-0.839H277.915L277.915,73.757z M250.254,73.757l-0.001,0.839h13.958v-0.839H250.254L250.254,73.757z M155.707,74.596
		l-3.712,20.619h-0.15l3.863-21.458h7.303l3.891,21.458h-0.152l-3.739-20.619H155.707L155.707,74.596z M233.187,87.771h-2.439
		l-0.139,0.839h2.721L233.187,87.771L233.187,87.771z M228.344,73.757h7.304l3.891,21.458h-0.151l-3.739-20.619h-7.304
		l-3.712,20.619h-0.151L228.344,73.757L228.344,73.757z M206.012,73.757v0.839h5.527l-0.001-0.839H206.012L206.012,73.757z
		 M176.765,74.596h5.336l2.538,8.261l2.623-8.261h5.334l0.305-0.839h-5.639l-2.623,8.262l-2.538-8.262h-5.64L176.765,74.596z"/>
	<linearGradient id="SVGID_5_" gradientUnits="userSpaceOnUse" x1="52.6055" y1="-0.8433" x2="50.1676" y2="138.8196">
		<stop  offset="0" style="stop-color:#00ABE3"/>
		<stop  offset="0.36" style="stop-color:#00A3DE"/>
		<stop  offset="0.79" style="stop-color:#007FB3"/>
		<stop  offset="1" style="stop-color:#0079AB"/>
	</linearGradient>
	<polygon fill-rule="evenodd" clip-rule="evenodd" fill="url(#SVGID_5_)" points="80.629,90.358 101.871,94.834 69.232,35.678 
		50.936,68.602 32.638,35.678 0,94.834 21.241,90.358 32.929,68.883 50.936,102.603 68.942,68.883 	"/>
	<polygon fill="#007098" points="378.139,104.11 382.398,104.11 382.398,105.838 375.927,105.838 375.927,94.415 378.139,94.415 	
		"/>
	<polygon fill="#007098" points="386.646,104.11 390.906,104.11 390.906,105.838 384.435,105.838 384.435,94.415 386.646,94.415 	
		"/>
	<path fill="#007098" d="M399.917,102.293l0.017,0.045c0.021,1.224-0.292,2.143-0.938,2.75c-0.646,0.61-1.569,0.916-2.766,0.916
		c-1.229,0-2.204-0.364-2.927-1.087c-0.72-0.726-1.081-1.754-1.081-3.088v-3.39c0-1.328,0.348-2.358,1.046-3.09
		c0.699-0.73,1.642-1.098,2.828-1.098c1.25,0,2.209,0.303,2.878,0.91c0.67,0.605,0.996,1.523,0.975,2.753l-0.016,0.048h-2.15
		c0-0.733-0.128-1.245-0.388-1.539c-0.26-0.292-0.691-0.439-1.299-0.439c-0.555,0-0.969,0.201-1.248,0.6
		c-0.275,0.402-0.415,1.015-0.415,1.84v3.405c0,0.83,0.15,1.446,0.447,1.848c0.3,0.399,0.747,0.6,1.35,0.6
		c0.549,0,0.945-0.145,1.184-0.437c0.241-0.289,0.361-0.806,0.361-1.547H399.917z"/>
	<polygon fill="#097098" points="378.139,104.11 382.398,104.11 382.398,105.838 375.927,105.838 375.927,94.415 378.139,94.415 	
		"/>
	<polygon fill="#097098" points="386.646,104.11 390.906,104.11 390.906,105.838 384.435,105.838 384.435,94.415 386.646,94.415 	
		"/>
	<path fill="#097098" d="M399.917,102.293l0.017,0.045c0.021,1.224-0.292,2.143-0.938,2.75c-0.646,0.61-1.569,0.916-2.766,0.916
		c-1.229,0-2.204-0.364-2.927-1.087c-0.72-0.726-1.081-1.754-1.081-3.088v-3.39c0-1.328,0.348-2.358,1.046-3.09
		c0.699-0.73,1.642-1.098,2.828-1.098c1.25,0,2.209,0.303,2.878,0.91c0.67,0.605,0.996,1.523,0.975,2.753l-0.016,0.048h-2.15
		c0-0.733-0.128-1.245-0.388-1.539c-0.26-0.292-0.691-0.439-1.299-0.439c-0.555,0-0.969,0.201-1.248,0.6
		c-0.275,0.402-0.415,1.015-0.415,1.84v3.405c0,0.83,0.15,1.446,0.447,1.848c0.3,0.399,0.747,0.6,1.35,0.6
		c0.549,0,0.945-0.145,1.184-0.437c0.241-0.289,0.361-0.806,0.361-1.547H399.917z"/>
</g>
</svg>
